<?xml version="1.0" encoding="UTF-8"?>
<svg id="Capa_1" xmlns="http://www.w3.org/2000/svg" version="1.1" viewBox="289 411 1335 259">
  <!-- Generator: Adobe Illustrator 29.8.2, SVG Export Plug-In . SVG Version: 2.1.1 Build 3)  -->
  <defs>
    <style>
      .st0, .st1 {
        stroke-linecap: round;
        stroke-linejoin: round;
        stroke-width: 17px;
      }

      .st0, .st1, .st2 {
        stroke: #000;
      }

      .st3 {
        stroke: #fff;
      }

      .st3, .st4 {
        fill: #fff;
      }

      .st3, .st2 {
        stroke-miterlimit: 10;
      }

      .st1 {
        fill: #f5f1e8;
      }

      .st2 {
        fill: none;
        stroke-width: 5px;
      }
    </style>
  </defs>
  <rect class="st4" x="291.5" y="419" width="256.01" height="245.48"/>
  <rect x="340.26" y="432.69" width="24.91" height="215.27"/>
  <rect x="302.33" y="432.69" width="24.91" height="215.27"/>
  <rect x="378.18" y="432.69" width="30.49" height="215.27"/>
  <rect x="421.44" y="432.9" width="114.2" height="215.06"/>
  <rect class="st2" x="287.07" y="419" width="264.15" height="245.48"/>
  <g>
    <g>
      <path class="st0" d="M510.38,612.2c-12.71,0-23.37-2-31.98-6-8.62-4-15.23-9.53-19.84-16.58-4.61-7.05-7.27-15.1-7.96-24.15l22.97-1.57c1.39,8.35,4.83,15.01,10.31,19.97,5.48,4.96,14.31,7.44,26.5,7.44,9.4,0,16.66-1.52,21.8-4.57,5.13-3.04,7.7-7.96,7.7-14.75,0-3.66-.83-6.7-2.48-9.14-1.66-2.44-4.92-4.57-9.79-6.4-4.87-1.83-12.01-3.61-21.41-5.35-12.88-2.44-22.97-5.48-30.28-9.14-7.31-3.66-12.45-8.09-15.4-13.31-2.96-5.22-4.44-11.49-4.44-18.8,0-12.36,4.57-22.49,13.71-30.41,9.14-7.92,22.06-11.88,38.77-11.88,12.18,0,22.15,2.13,29.89,6.4,7.74,4.27,13.62,9.79,17.62,16.58,4,6.79,6.44,13.93,7.31,21.41l-22.97,1.57c-.35-4.35-1.66-8.44-3.92-12.27-2.26-3.83-5.66-6.92-10.18-9.27-4.53-2.35-10.62-3.52-18.27-3.52-9.92,0-17.23,1.92-21.93,5.74-4.7,3.83-7.05,8.7-7.05,14.62,0,4.53.91,8.22,2.74,11.09,1.83,2.87,5.05,5.22,9.66,7.05,4.61,1.83,10.92,3.44,18.93,4.83,13.58,2.26,24.19,5.14,31.85,8.62,7.66,3.48,13.01,7.79,16.06,12.92,3.04,5.14,4.57,11.36,4.57,18.67,0,12.71-4.92,22.58-14.75,29.63-9.84,7.05-22.41,10.57-37.72,10.57Z"/>
      <path class="st0" d="M593.14,648.22v-177.53h20.36l.52,29.76-3.13-1.57c3.48-10.27,9.27-18.05,17.36-23.37,8.09-5.31,17.45-7.96,28.06-7.96,13.75,0,25.02,3.39,33.81,10.18,8.79,6.79,15.31,15.66,19.58,26.63,4.26,10.96,6.4,22.8,6.4,35.51s-2.13,24.54-6.4,35.51c-4.27,10.96-10.79,19.84-19.58,26.63-8.79,6.79-20.06,10.18-33.81,10.18-7.14,0-13.8-1.22-19.97-3.66-6.18-2.44-11.4-5.83-15.66-10.18-4.27-4.35-7.18-9.48-8.75-15.4l3.13-3.66v68.92h-21.93ZM654.23,591.31c12.01,0,21.49-4.52,28.46-13.58,6.96-9.05,10.44-21.67,10.44-37.85s-3.48-28.8-10.44-37.85c-6.96-9.05-16.45-13.57-28.46-13.57-8.01,0-14.93,1.92-20.76,5.74-5.83,3.83-10.36,9.57-13.58,17.23-3.22,7.66-4.83,17.15-4.83,28.46s1.57,20.8,4.7,28.46c3.13,7.66,7.66,13.4,13.58,17.23,5.91,3.83,12.88,5.74,20.89,5.74Z"/>
      <path class="st0" d="M786.84,612.2c-14.27,0-25.63-3.3-34.07-9.92-8.44-6.61-12.66-15.84-12.66-27.67s3.48-21.15,10.44-27.93c6.96-6.79,18.01-11.57,33.16-14.36l49.08-9.14c0-11.66-2.74-20.36-8.22-26.11-5.48-5.74-13.71-8.62-24.67-8.62-9.57,0-17.14,2.13-22.71,6.4-5.57,4.27-9.4,10.4-11.49,18.41l-23.23-1.83c2.61-13.05,8.92-23.63,18.93-31.72,10.01-8.09,22.84-12.14,38.51-12.14,17.75,0,31.33,5,40.73,15.01,9.4,10.01,14.1,23.8,14.1,41.38v57.17c0,3.13.56,5.35,1.7,6.66,1.13,1.31,3,1.96,5.61,1.96h5.48v19.32c-.7.17-1.83.3-3.39.39-1.57.09-3.22.13-4.96.13-6.27,0-11.36-1-15.27-3-3.92-2-6.75-5.13-8.48-9.4-1.74-4.26-2.61-9.88-2.61-16.84l2.61.52c-1.22,5.92-4.18,11.27-8.88,16.05-4.7,4.79-10.53,8.53-17.49,11.23-6.96,2.7-14.36,4.05-22.19,4.05ZM788.93,592.88c9.22,0,17.1-1.78,23.63-5.35,6.53-3.57,11.53-8.44,15.01-14.62,3.48-6.18,5.22-13.09,5.22-20.76v-9.92l-44.9,8.35c-9.4,1.74-15.88,4.4-19.45,7.96-3.57,3.57-5.35,8.22-5.35,13.97,0,6.44,2.31,11.45,6.92,15.01,4.61,3.57,10.92,5.35,18.93,5.35Z"/>
      <path class="st0" d="M892.31,609.06v-138.37h19.32l1.04,34.98-2.09-.78c1.74-11.83,5.52-20.49,11.36-25.98,5.83-5.48,13.62-8.22,23.37-8.22h13.58v20.89h-13.31c-6.96,0-12.75,1.26-17.36,3.79-4.61,2.53-8.09,6.27-10.44,11.23-2.35,4.96-3.52,11.27-3.52,18.93v83.54h-21.93Z"/>
      <path class="st0" d="M1018.15,612.2c-14.27,0-25.63-3.3-34.07-9.92-8.44-6.61-12.66-15.84-12.66-27.67s3.48-21.15,10.44-27.93c6.96-6.79,18.01-11.57,33.16-14.36l49.08-9.14c0-11.66-2.74-20.36-8.22-26.11-5.48-5.74-13.71-8.62-24.67-8.62-9.57,0-17.14,2.13-22.71,6.4-5.57,4.27-9.4,10.4-11.49,18.41l-23.23-1.83c2.61-13.05,8.92-23.63,18.93-31.72,10.01-8.09,22.84-12.14,38.51-12.14,17.75,0,31.33,5,40.73,15.01,9.4,10.01,14.1,23.8,14.1,41.38v57.17c0,3.13.56,5.35,1.7,6.66,1.13,1.31,3,1.96,5.61,1.96h5.48v19.32c-.7.17-1.83.3-3.39.39-1.57.09-3.22.13-4.96.13-6.27,0-11.36-1-15.27-3-3.92-2-6.75-5.13-8.48-9.4-1.74-4.26-2.61-9.88-2.61-16.84l2.61.52c-1.22,5.92-4.18,11.27-8.88,16.05-4.7,4.79-10.53,8.53-17.49,11.23-6.96,2.7-14.36,4.05-22.19,4.05ZM1020.24,592.88c9.22,0,17.1-1.78,23.63-5.35,6.53-3.57,11.53-8.44,15.01-14.62,3.48-6.18,5.22-13.09,5.22-20.76v-9.92l-44.9,8.35c-9.4,1.74-15.88,4.4-19.45,7.96-3.57,3.57-5.35,8.22-5.35,13.97,0,6.44,2.31,11.45,6.92,15.01,4.61,3.57,10.92,5.35,18.93,5.35Z"/>
      <path class="st0" d="M1123.62,609.06v-138.37h20.1l.78,34.98-3.13-1.04c1.57-7.66,4.31-14.23,8.22-19.71,3.92-5.48,8.75-9.75,14.49-12.79,5.74-3.04,12.09-4.57,19.06-4.57,12.01,0,21.8,3.31,29.37,9.92,7.57,6.62,12.31,15.84,14.23,27.67l-4.18-.26c1.39-8,3.96-14.75,7.7-20.23,3.74-5.48,8.57-9.7,14.49-12.66,5.91-2.96,12.7-4.44,20.36-4.44,9.92,0,18.28,2.05,25.06,6.14,6.79,4.09,11.92,10.05,15.4,17.88,3.48,7.83,5.22,17.32,5.22,28.46v89.02h-21.93v-84.32c0-12.53-2.44-21.97-7.31-28.33-4.88-6.35-12.1-9.53-21.67-9.53-6.44,0-12.05,1.57-16.84,4.7-4.79,3.13-8.48,7.62-11.1,13.45-2.61,5.83-3.92,12.92-3.92,21.28v82.76h-21.93v-82.76c0-12.36-2.18-22.02-6.53-28.98-4.35-6.96-11.66-10.44-21.93-10.44-6.44,0-12.05,1.57-16.84,4.7-4.79,3.13-8.53,7.66-11.23,13.58-2.7,5.92-4.05,12.97-4.05,21.15v82.76h-21.93Z"/>
      <path class="st0" d="M1403.48,612.2c-13.05,0-24.32-2.96-33.81-8.88-9.49-5.91-16.8-14.31-21.93-25.19-5.14-10.88-7.7-23.63-7.7-38.25s2.57-27.32,7.7-38.12c5.13-10.79,12.36-19.19,21.67-25.19,9.31-6,20.32-9.01,33.03-9.01,12.01,0,22.62,2.83,31.85,8.48,9.22,5.66,16.4,13.88,21.54,24.67,5.13,10.79,7.7,23.93,7.7,39.42v6.53h-100.51c.87,14.8,4.83,25.94,11.88,33.42,7.05,7.48,16.58,11.23,28.59,11.23,9.05,0,16.49-2.13,22.32-6.4,5.83-4.26,9.88-9.88,12.14-16.84l23.5,1.83c-3.66,12.36-10.57,22.5-20.76,30.42-10.18,7.92-22.58,11.88-37.2,11.88ZM1363.02,527.35h76.49c-1.04-13.4-4.92-23.23-11.62-29.5-6.7-6.27-15.19-9.4-25.45-9.4s-19.36,3.26-26.24,9.79c-6.88,6.53-11.27,16.23-13.18,29.11Z"/>
      <path class="st0" d="M1493.29,609.06v-138.37h19.32l1.04,34.98-2.09-.78c1.74-11.83,5.52-20.49,11.36-25.98,5.83-5.48,13.62-8.22,23.37-8.22h13.57v20.89h-13.31c-6.96,0-12.75,1.26-17.36,3.79-4.61,2.53-8.09,6.27-10.44,11.23-2.35,4.96-3.53,11.27-3.53,18.93v83.54h-21.93Z"/>
      <path class="st0" d="M1567.17,609.06v-29.5h29.5v29.5h-29.5Z"/>
    </g>
    <g>
      <path class="st1" d="M515.66,612.39c-12.71,0-23.37-2-31.98-6-8.62-4-15.23-9.53-19.84-16.58-4.61-7.05-7.27-15.1-7.96-24.15l22.97-1.57c1.39,8.35,4.83,15.01,10.31,19.97,5.48,4.96,14.31,7.44,26.5,7.44,9.4,0,16.66-1.52,21.8-4.57,5.13-3.04,7.7-7.96,7.7-14.75,0-3.66-.83-6.7-2.48-9.14-1.66-2.44-4.92-4.57-9.79-6.4-4.87-1.83-12.01-3.61-21.41-5.35-12.88-2.44-22.97-5.48-30.28-9.14-7.31-3.66-12.45-8.09-15.4-13.31-2.96-5.22-4.44-11.49-4.44-18.8,0-12.36,4.57-22.49,13.71-30.41,9.14-7.92,22.06-11.88,38.77-11.88,12.18,0,22.15,2.13,29.89,6.4,7.74,4.27,13.62,9.79,17.62,16.58,4,6.79,6.44,13.93,7.31,21.41l-22.97,1.57c-.35-4.35-1.66-8.44-3.92-12.27-2.26-3.83-5.66-6.92-10.18-9.27-4.53-2.35-10.62-3.52-18.27-3.52-9.92,0-17.23,1.92-21.93,5.74-4.7,3.83-7.05,8.7-7.05,14.62,0,4.53.91,8.22,2.74,11.09,1.83,2.87,5.05,5.22,9.66,7.05,4.61,1.83,10.92,3.44,18.93,4.83,13.58,2.26,24.19,5.14,31.85,8.61,7.66,3.48,13.01,7.79,16.06,12.92,3.04,5.14,4.57,11.36,4.57,18.67,0,12.71-4.92,22.58-14.75,29.63-9.84,7.05-22.41,10.57-37.72,10.57Z"/>
      <path class="st1" d="M598.41,648.42v-177.53h20.36l.52,29.76-3.13-1.57c3.48-10.27,9.27-18.05,17.36-23.37,8.09-5.31,17.45-7.96,28.06-7.96,13.75,0,25.02,3.39,33.81,10.18,8.79,6.79,15.31,15.66,19.58,26.63,4.26,10.96,6.4,22.8,6.4,35.51s-2.13,24.54-6.4,35.51c-4.27,10.96-10.79,19.84-19.58,26.63-8.79,6.79-20.06,10.18-33.81,10.18-7.14,0-13.8-1.22-19.97-3.66-6.18-2.44-11.4-5.83-15.66-10.18-4.27-4.35-7.18-9.48-8.75-15.4l3.13-3.66v68.92h-21.93ZM659.5,591.51c12.01,0,21.49-4.52,28.46-13.58,6.96-9.05,10.44-21.67,10.44-37.85s-3.48-28.8-10.44-37.85c-6.96-9.05-16.45-13.57-28.46-13.57-8.01,0-14.93,1.92-20.76,5.74-5.83,3.83-10.36,9.57-13.58,17.23-3.22,7.66-4.83,17.14-4.83,28.46s1.57,20.8,4.7,28.46c3.13,7.66,7.66,13.4,13.58,17.23,5.91,3.83,12.88,5.74,20.89,5.74Z"/>
      <path class="st1" d="M792.12,612.39c-14.27,0-25.63-3.3-34.07-9.92-8.44-6.61-12.66-15.84-12.66-27.67s3.48-21.15,10.44-27.93c6.96-6.79,18.01-11.57,33.16-14.36l49.08-9.14c0-11.66-2.74-20.36-8.22-26.11-5.48-5.74-13.71-8.61-24.67-8.61-9.57,0-17.14,2.13-22.71,6.4-5.57,4.27-9.4,10.4-11.49,18.41l-23.24-1.83c2.61-13.05,8.92-23.63,18.93-31.72,10.01-8.09,22.84-12.14,38.51-12.14,17.75,0,31.33,5,40.73,15.01,9.4,10.01,14.1,23.8,14.1,41.38v57.17c0,3.13.56,5.35,1.7,6.66,1.13,1.31,3,1.96,5.61,1.96h5.48v19.32c-.7.17-1.83.3-3.39.39-1.57.08-3.22.13-4.96.13-6.27,0-11.36-1-15.27-3-3.92-2-6.75-5.13-8.48-9.4-1.74-4.26-2.61-9.88-2.61-16.84l2.61.52c-1.22,5.92-4.18,11.27-8.88,16.05-4.7,4.79-10.53,8.53-17.49,11.23-6.96,2.7-14.36,4.05-22.19,4.05ZM794.21,593.07c9.22,0,17.1-1.78,23.63-5.35,6.53-3.57,11.53-8.44,15.01-14.62,3.48-6.18,5.22-13.09,5.22-20.76v-9.92l-44.9,8.35c-9.4,1.74-15.88,4.4-19.45,7.96-3.57,3.57-5.35,8.22-5.35,13.97,0,6.44,2.31,11.45,6.92,15.01,4.61,3.57,10.92,5.35,18.93,5.35Z"/>
      <path class="st1" d="M897.59,609.26v-138.37h19.32l1.04,34.98-2.09-.78c1.74-11.83,5.52-20.49,11.36-25.98,5.83-5.48,13.62-8.22,23.37-8.22h13.58v20.89h-13.31c-6.96,0-12.75,1.26-17.36,3.79-4.61,2.53-8.09,6.27-10.44,11.23-2.35,4.96-3.52,11.27-3.52,18.93v83.54h-21.93Z"/>
      <path class="st1" d="M1023.43,612.39c-14.27,0-25.63-3.3-34.07-9.92-8.44-6.61-12.66-15.84-12.66-27.67s3.48-21.15,10.44-27.93c6.96-6.79,18.01-11.57,33.16-14.36l49.08-9.14c0-11.66-2.74-20.36-8.22-26.11-5.48-5.74-13.71-8.61-24.67-8.61-9.57,0-17.14,2.13-22.71,6.4-5.57,4.27-9.4,10.4-11.49,18.41l-23.24-1.83c2.61-13.05,8.92-23.63,18.93-31.72,10.01-8.09,22.84-12.14,38.51-12.14,17.75,0,31.33,5,40.73,15.01,9.4,10.01,14.1,23.8,14.1,41.38v57.17c0,3.13.56,5.35,1.7,6.66,1.13,1.31,3,1.96,5.61,1.96h5.48v19.32c-.7.17-1.83.3-3.39.39-1.57.08-3.22.13-4.96.13-6.27,0-11.36-1-15.27-3-3.92-2-6.75-5.13-8.48-9.4-1.74-4.26-2.61-9.88-2.61-16.84l2.61.52c-1.22,5.92-4.18,11.27-8.88,16.05-4.7,4.79-10.53,8.53-17.49,11.23-6.96,2.7-14.36,4.05-22.19,4.05ZM1025.51,593.07c9.22,0,17.1-1.78,23.63-5.35,6.53-3.57,11.53-8.44,15.01-14.62,3.48-6.18,5.22-13.09,5.22-20.76v-9.92l-44.9,8.35c-9.4,1.74-15.88,4.4-19.45,7.96-3.57,3.57-5.35,8.22-5.35,13.97,0,6.44,2.31,11.45,6.92,15.01,4.61,3.57,10.92,5.35,18.93,5.35Z"/>
      <path class="st1" d="M1128.9,609.26v-138.37h20.1l.78,34.98-3.13-1.04c1.57-7.66,4.31-14.23,8.22-19.71,3.92-5.48,8.75-9.75,14.49-12.79,5.74-3.04,12.09-4.57,19.06-4.57,12.01,0,21.8,3.31,29.37,9.92,7.57,6.62,12.31,15.84,14.23,27.67l-4.18-.26c1.39-8,3.96-14.75,7.7-20.23,3.74-5.48,8.57-9.7,14.49-12.66,5.91-2.96,12.7-4.44,20.36-4.44,9.92,0,18.28,2.05,25.06,6.14,6.79,4.09,11.92,10.05,15.4,17.88,3.48,7.83,5.22,17.32,5.22,28.46v89.02h-21.93v-84.32c0-12.53-2.44-21.97-7.31-28.33-4.88-6.35-12.1-9.53-21.67-9.53-6.44,0-12.05,1.57-16.84,4.7-4.79,3.13-8.48,7.62-11.1,13.45-2.61,5.83-3.92,12.92-3.92,21.28v82.76h-21.93v-82.76c0-12.36-2.18-22.02-6.53-28.98-4.35-6.96-11.66-10.44-21.93-10.44-6.44,0-12.05,1.57-16.84,4.7-4.79,3.13-8.53,7.66-11.23,13.58-2.7,5.92-4.05,12.97-4.05,21.15v82.76h-21.93Z"/>
      <path class="st1" d="M1408.76,612.39c-13.05,0-24.32-2.96-33.81-8.88-9.49-5.91-16.8-14.31-21.93-25.19-5.14-10.88-7.7-23.63-7.7-38.25s2.57-27.32,7.7-38.12c5.13-10.79,12.36-19.19,21.67-25.19,9.31-6,20.32-9.01,33.03-9.01,12.01,0,22.62,2.83,31.85,8.48,9.22,5.66,16.4,13.88,21.54,24.67,5.13,10.79,7.7,23.93,7.7,39.42v6.53h-100.51c.87,14.8,4.83,25.94,11.88,33.42,7.05,7.48,16.58,11.23,28.59,11.23,9.05,0,16.49-2.13,22.32-6.4,5.83-4.26,9.88-9.88,12.14-16.84l23.5,1.83c-3.66,12.36-10.57,22.5-20.76,30.42-10.18,7.92-22.58,11.88-37.2,11.88ZM1368.3,527.54h76.49c-1.04-13.4-4.92-23.23-11.62-29.5-6.7-6.27-15.19-9.4-25.45-9.4s-19.36,3.26-26.24,9.79c-6.88,6.53-11.27,16.23-13.18,29.11Z"/>
      <path class="st1" d="M1498.57,609.26v-138.37h19.32l1.04,34.98-2.09-.78c1.74-11.83,5.52-20.49,11.36-25.98,5.83-5.48,13.62-8.22,23.37-8.22h13.57v20.89h-13.31c-6.96,0-12.75,1.26-17.36,3.79-4.61,2.53-8.09,6.27-10.44,11.23-2.35,4.96-3.53,11.27-3.53,18.93v83.54h-21.93Z"/>
      <path class="st1" d="M1572.45,609.26v-29.5h29.5v29.5h-29.5Z"/>
    </g>
    <g>
      <path class="st3" d="M515.66,612.39c-12.71,0-23.37-2-31.98-6-8.62-4-15.23-9.53-19.84-16.58-4.61-7.05-7.27-15.1-7.96-24.15l22.97-1.57c1.39,8.35,4.83,15.01,10.31,19.97,5.48,4.96,14.31,7.44,26.5,7.44,9.4,0,16.66-1.52,21.8-4.57,5.13-3.04,7.7-7.96,7.7-14.75,0-3.66-.83-6.7-2.48-9.14-1.66-2.44-4.92-4.57-9.79-6.4-4.87-1.83-12.01-3.61-21.41-5.35-12.88-2.44-22.97-5.48-30.28-9.14-7.31-3.66-12.45-8.09-15.4-13.31-2.96-5.22-4.44-11.49-4.44-18.8,0-12.36,4.57-22.49,13.71-30.41,9.14-7.92,22.06-11.88,38.77-11.88,12.18,0,22.15,2.13,29.89,6.4,7.74,4.27,13.62,9.79,17.62,16.58,4,6.79,6.44,13.93,7.31,21.41l-22.97,1.57c-.35-4.35-1.66-8.44-3.92-12.27-2.26-3.83-5.66-6.92-10.18-9.27-4.53-2.35-10.62-3.52-18.27-3.52-9.92,0-17.23,1.92-21.93,5.74-4.7,3.83-7.05,8.7-7.05,14.62,0,4.53.91,8.22,2.74,11.09,1.83,2.87,5.05,5.22,9.66,7.05,4.61,1.83,10.92,3.44,18.93,4.83,13.58,2.26,24.19,5.14,31.85,8.61,7.66,3.48,13.01,7.79,16.06,12.92,3.04,5.14,4.57,11.36,4.57,18.67,0,12.71-4.92,22.58-14.75,29.63-9.84,7.05-22.41,10.57-37.72,10.57Z"/>
      <path class="st3" d="M598.41,648.42v-177.53h20.36l.52,29.76-3.13-1.57c3.48-10.27,9.27-18.05,17.36-23.37,8.09-5.31,17.45-7.96,28.06-7.96,13.75,0,25.02,3.39,33.81,10.18,8.79,6.79,15.31,15.66,19.58,26.63,4.26,10.96,6.4,22.8,6.4,35.51s-2.13,24.54-6.4,35.51c-4.27,10.96-10.79,19.84-19.58,26.63-8.79,6.79-20.06,10.18-33.81,10.18-7.14,0-13.8-1.22-19.97-3.66-6.18-2.44-11.4-5.83-15.66-10.18-4.27-4.35-7.18-9.48-8.75-15.4l3.13-3.66v68.92h-21.93ZM659.5,591.51c12.01,0,21.49-4.52,28.46-13.58,6.96-9.05,10.44-21.67,10.44-37.85s-3.48-28.8-10.44-37.85c-6.96-9.05-16.45-13.57-28.46-13.57-8.01,0-14.93,1.92-20.76,5.74-5.83,3.83-10.36,9.57-13.58,17.23-3.22,7.66-4.83,17.14-4.83,28.46s1.57,20.8,4.7,28.46c3.13,7.66,7.66,13.4,13.58,17.23,5.91,3.83,12.88,5.74,20.89,5.74Z"/>
      <path class="st3" d="M792.12,612.39c-14.27,0-25.63-3.3-34.07-9.92-8.44-6.61-12.66-15.84-12.66-27.67s3.48-21.15,10.44-27.93c6.96-6.79,18.01-11.57,33.16-14.36l49.08-9.14c0-11.66-2.74-20.36-8.22-26.11-5.48-5.74-13.71-8.61-24.67-8.61-9.57,0-17.14,2.13-22.71,6.4-5.57,4.27-9.4,10.4-11.49,18.41l-23.24-1.83c2.61-13.05,8.92-23.63,18.93-31.72,10.01-8.09,22.84-12.14,38.51-12.14,17.75,0,31.33,5,40.73,15.01,9.4,10.01,14.1,23.8,14.1,41.38v57.17c0,3.13.56,5.35,1.7,6.66,1.13,1.31,3,1.96,5.61,1.96h5.48v19.32c-.7.17-1.83.3-3.39.39-1.57.08-3.22.13-4.96.13-6.27,0-11.36-1-15.27-3-3.92-2-6.75-5.13-8.48-9.4-1.74-4.26-2.61-9.88-2.61-16.84l2.61.52c-1.22,5.92-4.18,11.27-8.88,16.05-4.7,4.79-10.53,8.53-17.49,11.23-6.96,2.7-14.36,4.05-22.19,4.05ZM794.21,593.07c9.22,0,17.1-1.78,23.63-5.35,6.53-3.57,11.53-8.44,15.01-14.62,3.48-6.18,5.22-13.09,5.22-20.76v-9.92l-44.9,8.35c-9.4,1.74-15.88,4.4-19.45,7.96-3.57,3.57-5.35,8.22-5.35,13.97,0,6.44,2.31,11.45,6.92,15.01,4.61,3.57,10.92,5.35,18.93,5.35Z"/>
      <path class="st3" d="M897.59,609.26v-138.37h19.32l1.04,34.98-2.09-.78c1.74-11.83,5.52-20.49,11.36-25.98,5.83-5.48,13.62-8.22,23.37-8.22h13.58v20.89h-13.31c-6.96,0-12.75,1.26-17.36,3.79-4.61,2.53-8.09,6.27-10.44,11.23-2.35,4.96-3.52,11.27-3.52,18.93v83.54h-21.93Z"/>
      <path class="st3" d="M1023.43,612.39c-14.27,0-25.63-3.3-34.07-9.92-8.44-6.61-12.66-15.84-12.66-27.67s3.48-21.15,10.44-27.93c6.96-6.79,18.01-11.57,33.16-14.36l49.08-9.14c0-11.66-2.74-20.36-8.22-26.11-5.48-5.74-13.71-8.61-24.67-8.61-9.57,0-17.14,2.13-22.71,6.4-5.57,4.27-9.4,10.4-11.49,18.41l-23.24-1.83c2.61-13.05,8.92-23.63,18.93-31.72,10.01-8.09,22.84-12.14,38.51-12.14,17.75,0,31.33,5,40.73,15.01,9.4,10.01,14.1,23.8,14.1,41.38v57.17c0,3.13.56,5.35,1.7,6.66,1.13,1.31,3,1.96,5.61,1.96h5.48v19.32c-.7.17-1.83.3-3.39.39-1.57.08-3.22.13-4.96.13-6.27,0-11.36-1-15.27-3-3.92-2-6.75-5.13-8.48-9.4-1.74-4.26-2.61-9.88-2.61-16.84l2.61.52c-1.22,5.92-4.18,11.27-8.88,16.05-4.7,4.79-10.53,8.53-17.49,11.23-6.96,2.7-14.36,4.05-22.19,4.05ZM1025.51,593.07c9.22,0,17.1-1.78,23.63-5.35,6.53-3.57,11.53-8.44,15.01-14.62,3.48-6.18,5.22-13.09,5.22-20.76v-9.92l-44.9,8.35c-9.4,1.74-15.88,4.4-19.45,7.96-3.57,3.57-5.35,8.22-5.35,13.97,0,6.44,2.31,11.45,6.92,15.01,4.61,3.57,10.92,5.35,18.93,5.35Z"/>
      <path class="st3" d="M1128.9,609.26v-138.37h20.1l.78,34.98-3.13-1.04c1.57-7.66,4.31-14.23,8.22-19.71,3.92-5.48,8.75-9.75,14.49-12.79,5.74-3.04,12.09-4.57,19.06-4.57,12.01,0,21.8,3.31,29.37,9.92,7.57,6.62,12.31,15.84,14.23,27.67l-4.18-.26c1.39-8,3.96-14.75,7.7-20.23,3.74-5.48,8.57-9.7,14.49-12.66,5.91-2.96,12.7-4.44,20.36-4.44,9.92,0,18.28,2.05,25.06,6.14,6.79,4.09,11.92,10.05,15.4,17.88,3.48,7.83,5.22,17.32,5.22,28.46v89.02h-21.93v-84.32c0-12.53-2.44-21.97-7.31-28.33-4.88-6.35-12.1-9.53-21.67-9.53-6.44,0-12.05,1.57-16.84,4.7-4.79,3.13-8.48,7.62-11.1,13.45-2.61,5.83-3.92,12.92-3.92,21.28v82.76h-21.93v-82.76c0-12.36-2.18-22.02-6.53-28.98-4.35-6.96-11.66-10.44-21.93-10.44-6.44,0-12.05,1.57-16.84,4.7-4.79,3.13-8.53,7.66-11.23,13.58-2.7,5.92-4.05,12.97-4.05,21.15v82.76h-21.93Z"/>
      <path class="st3" d="M1408.76,612.39c-13.05,0-24.32-2.96-33.81-8.88-9.49-5.91-16.8-14.31-21.93-25.19-5.14-10.88-7.7-23.63-7.7-38.25s2.57-27.32,7.7-38.12c5.13-10.79,12.36-19.19,21.67-25.19,9.31-6,20.32-9.01,33.03-9.01,12.01,0,22.62,2.83,31.85,8.48,9.22,5.66,16.4,13.88,21.54,24.67,5.13,10.79,7.7,23.93,7.7,39.42v6.53h-100.51c.87,14.8,4.83,25.94,11.88,33.42,7.05,7.48,16.58,11.23,28.59,11.23,9.05,0,16.49-2.13,22.32-6.4,5.83-4.26,9.88-9.88,12.14-16.84l23.5,1.83c-3.66,12.36-10.57,22.5-20.76,30.42-10.18,7.92-22.58,11.88-37.2,11.88ZM1368.3,527.54h76.49c-1.04-13.4-4.92-23.23-11.62-29.5-6.7-6.27-15.19-9.4-25.45-9.4s-19.36,3.26-26.24,9.79c-6.88,6.53-11.27,16.23-13.18,29.11Z"/>
      <path class="st3" d="M1498.57,609.26v-138.37h19.32l1.04,34.98-2.09-.78c1.74-11.83,5.52-20.49,11.36-25.98,5.83-5.48,13.62-8.22,23.37-8.22h13.57v20.89h-13.31c-6.96,0-12.75,1.26-17.36,3.79-4.61,2.53-8.09,6.27-10.44,11.23-2.35,4.96-3.53,11.27-3.53,18.93v83.54h-21.93Z"/>
      <path class="st3" d="M1572.45,609.26v-29.5h29.5v29.5h-29.5Z"/>
    </g>
  </g>
</svg>